<svg id="SvgjsSvg1088" width="288" height="288" xmlns="http://www.w3.org/2000/svg" version="1.1" xmlns:xlink="http://www.w3.org/1999/xlink" xmlns:svgjs="http://svgjs.com/svgjs"><defs id="SvgjsDefs1089"></defs><g id="SvgjsG1090"><svg xmlns="http://www.w3.org/2000/svg" width="288" height="288" viewBox="0 0 16 16"><path d="M 1 1 L 1 1.5 L 1 15 L 15 15 L 15 1 L 1 1 z M 2 2 L 14 2 L 14 9.1640625 L 11.650391 6.2207031 L 9.078125 9.1816406 L 5.9960938 5.1855469 L 2 9.6855469 L 2 2 z M 5.9394531 6.7519531 L 8.4082031 9.9511719 L 8.4042969 9.9550781 L 8.421875 9.9707031 L 11.529297 14 L 2 14 L 2 11.189453 L 5.9394531 6.7519531 z M 11.617188 7.78125 L 14 10.767578 L 14 14 L 12.794922 14 L 9.6992188 9.9863281 L 11.617188 7.78125 z " color="#000" enable-background="accumulate" font-family="sans-serif" font-weight="400" overflow="visible" style="line-height:normal;text-indent:0;text-align:start;text-decoration-line:none;text-decoration-style:solid;text-decoration-color:#000;text-transform:none;block-progression:tb;white-space:normal;isolation:auto;mix-blend-mode:normal;solid-color:#000;solid-opacity:1" fill="#000000" class="color000 svgShape"></path></svg></g></svg>