<svg xmlns="http://www.w3.org/2000/svg" width="30px" height="30px" viewBox="-60 -60 120 120" aria-labelledby="addIconTitle">
<g  transform="matrix(1 0 0 1 0 0)" opacity="1"><path transform="matrix(1 0 0 1 0 0)"  d="M 51 0 C 51 28.166522 28.166522 51 0 51 C -28.166523 51 -51 28.166522 -51 0 C -51.000001 -28.166523 -28.166523 -51 -0.000001 -51 C 28.166522 -51.000001 51 -28.166523 51 0 Z " fill="#0052CC" stroke="undefined" stroke-width="1" stroke-opacity="1" fill-opacity="1" visibility="visible" stroke-linecap="butt" stroke-linejoin="miter" stroke-miterlimit="4"></path><g id="twojs-193" transform="matrix(1 0 0 1 0 0)" opacity="1"><g id="twojs-190" transform="matrix(2.125 0 0 2.125 -25.5 -25.5)" opacity="1" clip-path="url(#twojs-192)"><path transform="matrix(1 0 0 1 12 12)" id="twojs-191" d="M -8 8 C -8 5 -4 5 -2 3 C -1 2 -4 2 -4 -3 C -4 -6.333 -2.667 -8 0 -8 C 2.667 -8 4 -6.333 4 -3 C 4 2 1 2 2 3 C 4 5 8 5 8 8 " fill="transparent" stroke="#FFFFFF" stroke-width="1" stroke-opacity="1" fill-opacity="1" visibility="visible" stroke-linecap="square" stroke-linejoin="miter" stroke-miterlimit="4"></path></g></g></g>
</svg>