<svg xmlns="http://www.w3.org/2000/svg" width="30px" height="30px" viewBox="-60 -60 120 120" aria-labelledby="addIconTitle">
<g id="twojs-214" transform="matrix(1 0 0 1 0 0)" opacity="1"><path transform="matrix(1 0 0 1 0 0)" id="twojs-209" d="M 36 0 C 36 19.88225 19.88225 36 0 36 C -19.882251 36 -36 19.88225 -36 0 C -36.000001 -19.882251 -19.882251 -36 -0.000001 -36 C 19.88225 -36.000001 36 -19.882251 36 0 Z " fill="#0747A6" stroke="undefined" stroke-width="1" stroke-opacity="1" fill-opacity="1" visibility="visible" stroke-linecap="butt" stroke-linejoin="miter" stroke-miterlimit="4"></path><g id="twojs-213" transform="matrix(1 0 0 1 0 0)" opacity="1"><g id="twojs-210" transform="matrix(1.5 0 0 1.5 -18 -18)" opacity="1" clip-path="url(#twojs-212)"><path transform="matrix(1 0 0 1 12 12)" id="twojs-211" d="M -8 8 C -8 5 -4 5 -2 3 C -1 2 -4 2 -4 -3 C -4 -6.333 -2.667 -8 0 -8 C 2.667 -8 4 -6.333 4 -3 C 4 2 1 2 2 3 C 4 5 8 5 8 8 " fill="transparent" stroke="#FFFFFF" stroke-width="1" stroke-opacity="1" fill-opacity="1" visibility="visible" stroke-linecap="square" stroke-linejoin="miter" stroke-miterlimit="4"></path></g></g></g>
</svg>