<svg xmlns="http://www.w3.org/2000/svg" width="30px" height="30px" viewBox="-60 -60 120 120" aria-labelledby="addIconTitle">
<g id="two-5" transform="matrix(1 0 0 1 0 0)" opacity="1"><g id="two-4" transform="matrix(1 0 0 1 0 0)" opacity="1"><path transform="matrix(1 0 0 1 0 0)" id="two-1" d="M -50.5 -25 C -50.5 -25 50.5 -25 50.5 -25 C 55.5 -25 55.5 -20 55.5 -20 C 55.5 -20 55.5 20 55.5 20 C 55.5 25 50.5 25 50.5 25 C 50.5 25 -50.5 25 -50.5 25 C -55.5 25 -55.5 20 -55.5 20 C -55.5 20 -55.5 -20 -55.5 -20 C -55.5 -25 -50.5 -25 -50.5 -25 C -50.5 -25 -50.5 -25 -50.5 -25 C -50.5 -25 -50.5 -25 -50.5 -25 Z " fill="#0052CC" stroke="undefined" stroke-width="1" stroke-opacity="1" fill-opacity="1" visibility="visible" stroke-linecap="butt" stroke-linejoin="miter" stroke-miterlimit="4"></path></g><g id="two-3" transform="matrix(1 0 0 1 0 0)" opacity="1"><text transform="matrix(1 0 0 1 0 0)" id="two-2" font-family="sans-serif" font-size="16" line-height="17" text-anchor="middle" dominant-baseline="middle" alignment-baseline="middle" font-style="normal" font-weight="500" text-decoration="none" fill="#fff" stroke="transparent" stroke-width="1" opacity="1" class="" visibility="visible">Button</text></g></g>
</svg>