<svg xmlns="http://www.w3.org/2000/svg" width="30px" height="30px" viewBox="-60 -60 120 120" aria-labelledby="addIconTitle">
<g id="twojs-211" transform="matrix(1 0 0 1 0 0)" opacity="1"><path transform="matrix(1 0 0 1 0 0)" id="twojs-210" d="M -58.190094 -25 C -58.190094 -25 58.190093 -25 58.190093 -25 C 63.190093 -25 63.190093 -20 63.190093 -20 C 63.190093 -20 63.190093 20 63.190093 20 C 63.190093 25 58.190093 25 58.190093 25 C 58.190093 25 -58.190094 25 -58.190094 25 C -63.190094 25 -63.190094 20 -63.190094 20 C -63.190094 20 -63.190094 -20 -63.190094 -20 C -63.190094 -25 -58.190094 -25 -58.190094 -25 C -58.190094 -25 -58.190094 -25 -58.190094 -25 C -58.190094 -25 -58.190094 -25 -58.190094 -25 Z " fill="#0052CC" stroke="undefined" stroke-width="1" stroke-opacity="1" fill-opacity="1" visibility="visible" stroke-linecap="butt" stroke-linejoin="miter" stroke-miterlimit="4"></path><g id="twojs-209" transform="matrix(1 0 0 1 0 0)" opacity="1"><g id="twojs-207" transform="matrix(1 0 0 1 32.493133 0)" opacity="1"><g id="twojs-204" transform="matrix(0.8 0 0 0.8 -9.57801 -9.433765)" opacity="1" clip-path="url(#twojs-206)"><path transform="matrix(1 0 0 1 11.972511 11.792204)" id="twojs-205" d="M 0.768285 6.61139 L 3.925145 3.454529 L 9.142164 7.093118 L 7.971868 8.263408 C 7.192354 9.042922 6.048111 9.332111 4.991839 9.016563 C 1.762605 8.05187 -1.138263 6.283271 -3.710767 3.710768 C -6.283266 1.138268 -8.051863 -1.762595 -9.016557 -4.991823 C -9.332121 -6.048099 -9.04293 -7.19235 -8.263411 -7.971868 L -7.093117 -9.142163 L -3.454528 -3.925144 L -6.611388 -0.768284 " fill="transparent" stroke="#FFFFFF" stroke-width="2" stroke-opacity="1" fill-opacity="1" visibility="visible" stroke-linecap="round" stroke-linejoin="miter" stroke-miterlimit="4"></path></g></g><g id="twojs-208" transform="matrix(1 0 0 1 32.493133 0)" opacity="1"><text transform="matrix(1 0 0 1 -15 0)" id="twojs-203" font-family="sans-serif" font-size="16" line-height="17" text-anchor="end" dominant-baseline="middle" alignment-baseline="middle" font-style="normal" font-weight="500" text-decoration="none" fill="#fff" stroke="transparent" stroke-width="1" opacity="1" class="" visibility="visible">Button</text></g></g></g>
</svg>