<svg xmlns="http://www.w3.org/2000/svg" width="30px" height="30px" viewBox="-40 -40 150 130" aria-labelledby="addIconTitle">
<g id="twojs-74" transform="matrix(1 0 0 1 0 0)" opacity="1"><g id="twojs-78" transform="matrix(1 0 0 1 0 0)" opacity="1"><path transform="matrix(1 0 0 1 -10 0)" id="twojs-76" d="M -7.5 -7.5 L 7.5 -7.5 L 7.5 7.5 L -7.5 7.5 Z " fill="#fff" stroke="#B3BAC5" stroke-width="1" stroke-opacity="1" fill-opacity="1" visibility="visible" stroke-linecap="butt" stroke-linejoin="miter" stroke-miterlimit="4"></path><path transform="matrix(0.039999 0 0 0.039999 -10 0)" id="twojs-77" d="M 149.333 -192 L -149.333 -192 C -172.802001 -192 -192 -172.802001 -192 -149.333 L -192 149.332999 C -192 172.802 -172.802001 192 -149.333 192 L 149.332999 192 C 172.802 192 192 172.802 192 149.333 L 192 -149.333 C 192 -172.802001 172.802 -192 149.333 -192 Z M -42.667 106.666999 L -149.333 0 L -119.469 -29.864001 L -42.667 46.937999 L 119.469 -115.198001 L 149.333 -85.333 L -42.667 106.667 Z " fill="#0747A6" stroke="undefined" stroke-width="1" stroke-opacity="0" fill-opacity="0" visibility="visible" stroke-linecap="butt" stroke-linejoin="miter" stroke-miterlimit="4"></path><text transform="matrix(1 0 0 1 10 0)" id="twojs-75" font-family="sans-serif" font-size="16" line-height="17" text-anchor="start" dominant-baseline="central" alignment-baseline="central" font-style="normal" font-weight="400" text-decoration="none" fill="#000" stroke="transparent" stroke-width="1" opacity="1" class="" visibility="visible" style="display: block;">checkbox 1</text></g><g id="twojs-82" transform="matrix(1 0 0 1 0 0)" opacity="1"><path transform="matrix(1 0 0 1 -10 30)" id="twojs-80" d="M -7.5 -7.5 L 7.5 -7.5 L 7.5 7.5 L -7.5 7.5 Z " fill="#fff" stroke="#B3BAC5" stroke-width="1" stroke-opacity="1" fill-opacity="1" visibility="visible" stroke-linecap="butt" stroke-linejoin="miter" stroke-miterlimit="4"></path><path transform="matrix(0.039999 0 0 0.039999 -10 30)" id="twojs-81" d="M 149.333 -192 L -149.333 -192 C -172.802001 -192 -192 -172.802001 -192 -149.333 L -192 149.332999 C -192 172.802 -172.802001 192 -149.333 192 L 149.332999 192 C 172.802 192 192 172.802 192 149.333 L 192 -149.333 C 192 -172.802001 172.802 -192 149.333 -192 Z M -42.667 106.666999 L -149.333 0 L -119.469 -29.864001 L -42.667 46.937999 L 119.469 -115.198001 L 149.333 -85.333 L -42.667 106.667 Z " fill="#0747A6" stroke="undefined" stroke-width="1" stroke-opacity="1" fill-opacity="1" visibility="visible" stroke-linecap="butt" stroke-linejoin="miter" stroke-miterlimit="4"></path><text transform="matrix(1 0 0 1 10 30)" id="twojs-79" font-family="sans-serif" font-size="16" line-height="17" text-anchor="start" dominant-baseline="central" alignment-baseline="central" font-style="normal" font-weight="400" text-decoration="none" fill="#000" stroke="transparent" stroke-width="1" opacity="1" class="" visibility="visible" style="display: block;">checkbox 2</text></g><g id="twojs-394" transform="matrix(1 0 0 1 0 0)" opacity="1"><path transform="matrix(1 0 0 1 -10 60)" id="twojs-392" d="M -7.5 -7.5 L 7.5 -7.5 L 7.5 7.5 L -7.5 7.5 Z " fill="#fff" stroke="#B3BAC5" stroke-width="1" stroke-opacity="1" fill-opacity="1" visibility="visible" stroke-linecap="butt" stroke-linejoin="miter" stroke-miterlimit="4"></path><path transform="matrix(0.039999 0 0 0.039999 -10 60)" id="twojs-393" d="M 149.333 -192 L -149.333 -192 C -172.802001 -192 -192 -172.802001 -192 -149.333 L -192 149.332999 C -192 172.802 -172.802001 192 -149.333 192 L 149.332999 192 C 172.802 192 192 172.802 192 149.333 L 192 -149.333 C 192 -172.802001 172.802 -192 149.333 -192 Z M -42.667 106.666999 L -149.333 0 L -119.469 -29.864001 L -42.667 46.937999 L 119.469 -115.198001 L 149.333 -85.333 L -42.667 106.667 Z " fill="#0052cc" stroke="undefined" stroke-width="1" stroke-opacity="0" fill-opacity="0" visibility="visible" stroke-linecap="butt" stroke-linejoin="miter" stroke-miterlimit="4"></path><text transform="matrix(1 0 0 1 10 60)" id="twojs-391" font-family="sans-serif" font-size="16" line-height="17" text-anchor="start" dominant-baseline="central" alignment-baseline="central" font-style="normal" font-weight="400" text-decoration="none" fill="#000" stroke="transparent" stroke-width="1" opacity="1" class="" visibility="visible">checkbox 3</text></g></g>
</svg>