<svg xmlns="http://www.w3.org/2000/svg" width="10px" height="10px" viewBox="-200 -100 400 120" aria-labelledby="addIconTitle">
<path transform="matrix(1 0 0 1 -250 -99)" id="twojs-270" d="M 100 100 L 100 100 L 400 100 M 100 100 L 100 100 " fill="#fff" stroke="#000" stroke-width="4" stroke-opacity="1" fill-opacity="1" visibility="visible" stroke-linecap="butt" stroke-linejoin="miter" stroke-miterlimit="4" style="cursor: pointer;"></path><g id="twojs-273" transform="matrix(1 0 0 1 -250 -102)" opacity="1"><path transform="matrix(1 0 0 1 96 102)" id="twojs-271" d="M 5 0 C 5 2.761423 2.761423 5 0 5 C -2.761424 5 -5 2.761423 -5 0 C -5.000001 -2.761424 -2.761424 -5 -0.000001 -5 C 2.761423 -5.000001 5 -2.761424 5 0 Z " fill="#FFF" stroke="#0052CC" stroke-width="1" stroke-opacity="0" fill-opacity="0" visibility="visible" stroke-linecap="butt" stroke-linejoin="miter" stroke-miterlimit="4" class="avoid-dragging" style="cursor: pointer;"></path><path transform="matrix(1 0 0 1 404 102)" id="twojs-272" d="M 5 0 C 5 2.761423 2.761423 5 0 5 C -2.761424 5 -5 2.761423 -5 0 C -5.000001 -2.761424 -2.761424 -5 -0.000001 -5 C 2.761423 -5.000001 5 -2.761424 5 0 Z " fill="#FFF" stroke="#0052CC" stroke-width="1" stroke-opacity="0" fill-opacity="0" visibility="visible" stroke-linecap="butt" stroke-linejoin="miter" stroke-miterlimit="4" class="avoid-dragging" style=""></path></g>
</svg>