<svg xmlns="http://www.w3.org/2000/svg" width="30px" height="30px" viewBox="-60 -60 120 120" aria-labelledby="addIconTitle">
<g id="twojs-228" transform="matrix(1 0 0 1 0 0)" opacity="1"><path transform="matrix(1 0 0 1 0 0)" id="twojs-223" d="M -36 -32.5 L 36 -32.5 L 36 32.5 L -36 32.5 Z " fill="#0052CC" stroke="undefined" stroke-width="1" stroke-opacity="1" fill-opacity="1" visibility="visible" stroke-linecap="butt" stroke-linejoin="miter" stroke-miterlimit="4"></path><g id="twojs-227" transform="matrix(1 0 0 1 0 0)" opacity="1"><g id="twojs-224" transform="matrix(1.408163 0 0 1.408163 -16.897961 -16.897961)" opacity="1" clip-path="url(#twojs-226)"><path transform="matrix(1 0 0 1 12 12)" id="twojs-225" d="M -8 8 C -8 5 -4 5 -2 3 C -1 2 -4 2 -4 -3 C -4 -6.333 -2.667 -8 0 -8 C 2.667 -8 4 -6.333 4 -3 C 4 2 1 2 2 3 C 4 5 8 5 8 8 " fill="transparent" stroke="#FFFFFF" stroke-width="1" stroke-opacity="1" fill-opacity="1" visibility="visible" stroke-linecap="square" stroke-linejoin="miter" stroke-miterlimit="4"></path></g></g></g>
</svg>