<svg xmlns="http://www.w3.org/2000/svg" width="30px" height="30px" viewBox="-40 -40 150 130" aria-labelledby="addIconTitle">
<g id="twojs-58" transform="matrix(1 0 0 1 0 0)" opacity="1"><g id="twojs-62" transform="matrix(1 0 0 1 0 0)" opacity="1"><path transform="matrix(1 0 0 1 -10 0)" id="twojs-60" d="M 8 0 C 8 4.418277 4.418277 8 0 8 C -4.418278 8 -8 4.418277 -8 0 C -8 -4.418278 -4.418278 -8 -0.000001 -8 C 4.418277 -8.000001 8 -4.418278 8 0 Z " fill="#fff" stroke="#B3BAC5" stroke-width="1" stroke-opacity="1" fill-opacity="1" visibility="visible" stroke-linecap="butt" stroke-linejoin="miter" stroke-miterlimit="4"></path><path transform="matrix(1 0 0 1 -10 0)" id="twojs-61" d="M 5 0 C 5 2.761423 2.761423 5 0 5 C -2.761424 5 -5 2.761423 -5 0 C -5.000001 -2.761424 -2.761424 -5 -0.000001 -5 C 2.761423 -5.000001 5 -2.761424 5 0 Z " fill="#0052CC" stroke="undefined" stroke-width="1" stroke-opacity="0" fill-opacity="0" visibility="visible" stroke-linecap="butt" stroke-linejoin="miter" stroke-miterlimit="4"></path><text transform="matrix(1 0 0 1 10 0)" id="twojs-59" font-family="sans-serif" font-size="16" line-height="17" text-anchor="start" dominant-baseline="central" alignment-baseline="central" font-style="normal" font-weight="400" text-decoration="none" fill="#000" stroke="transparent" stroke-width="1" opacity="1" class="" visibility="visible" style="display: block;">radiobox 1</text></g><g id="twojs-66" transform="matrix(1 0 0 1 0 0)" opacity="1"><path transform="matrix(1 0 0 1 -10 30)" id="twojs-64" d="M 8 0 C 8 4.418277 4.418277 8 0 8 C -4.418278 8 -8 4.418277 -8 0 C -8 -4.418278 -4.418278 -8 -0.000001 -8 C 4.418277 -8.000001 8 -4.418278 8 0 Z " fill="#fff" stroke="#B3BAC5" stroke-width="1" stroke-opacity="1" fill-opacity="1" visibility="visible" stroke-linecap="butt" stroke-linejoin="miter" stroke-miterlimit="4"></path><path transform="matrix(1 0 0 1 -10 30)" id="twojs-65" d="M 5 0 C 5 2.761423 2.761423 5 0 5 C -2.761424 5 -5 2.761423 -5 0 C -5.000001 -2.761424 -2.761424 -5 -0.000001 -5 C 2.761423 -5.000001 5 -2.761424 5 0 Z " fill="#0052CC" stroke="undefined" stroke-width="1" stroke-opacity="1" fill-opacity="1" visibility="visible" stroke-linecap="butt" stroke-linejoin="miter" stroke-miterlimit="4"></path><text transform="matrix(1 0 0 1 10 30)" id="twojs-63" font-family="sans-serif" font-size="16" line-height="17" text-anchor="start" dominant-baseline="central" alignment-baseline="central" font-style="normal" font-weight="400" text-decoration="none" fill="#000" stroke="transparent" stroke-width="1" opacity="1" class="" visibility="visible" style="display: block;">radiobox 2</text></g><g id="twojs-70" transform="matrix(1 0 0 1 0 0)" opacity="1"><path transform="matrix(1 0 0 1 -10 60)" id="twojs-68" d="M 8 0 C 8 4.418277 4.418277 8 0 8 C -4.418278 8 -8 4.418277 -8 0 C -8 -4.418278 -4.418278 -8 -0.000001 -8 C 4.418277 -8.000001 8 -4.418278 8 0 Z " fill="#fff" stroke="#B3BAC5" stroke-width="1" stroke-opacity="1" fill-opacity="1" visibility="visible" stroke-linecap="butt" stroke-linejoin="miter" stroke-miterlimit="4"></path><path transform="matrix(1 0 0 1 -10 60)" id="twojs-69" d="M 5 0 C 5 2.761423 2.761423 5 0 5 C -2.761424 5 -5 2.761423 -5 0 C -5.000001 -2.761424 -2.761424 -5 -0.000001 -5 C 2.761423 -5.000001 5 -2.761424 5 0 Z " fill="#0052CC" stroke="undefined" stroke-width="1" stroke-opacity="0" fill-opacity="0" visibility="visible" stroke-linecap="butt" stroke-linejoin="miter" stroke-miterlimit="4"></path><text transform="matrix(1 0 0 1 10 60)" id="two-67" font-family="sans-serif" font-size="16" line-height="17" text-anchor="start" dominant-baseline="central" alignment-baseline="central" font-style="normal" font-weight="400" text-decoration="none" fill="#000" stroke="transparent" stroke-width="1" opacity="1" class="" visibility="visible">radiobox3</text></g></g>
</svg>