<svg xmlns="http://www.w3.org/2000/svg" width="30px" height="30px" viewBox="-60 -60 120 120" aria-labelledby="addIconTitle">
<g id="twojs-19" transform="matrix(1 0 0 1 0 0)" opacity="1"><path transform="matrix(1 0 0 1 0 0)" id="twojs-17" d="M -11.5 -15 C -11.5 -15 11.5 -15 11.5 -15 C 27.5 -15 27.5 1 27.5 1 C 27.5 1 27.5 -1 27.5 -1 C 27.5 15 11.5 15 11.5 15 C 11.5 15 -11.5 15 -11.5 15 C -27.5 15 -27.5 -1 -27.5 -1 C -27.5 -1 -27.5 1 -27.5 1 C -27.5 -15 -11.5 -15 -11.5 -15 C -11.5 -15 -11.5 -15 -11.5 -15 C -11.5 -15 -11.5 -15 -11.5 -15 Z " fill="#ccc" stroke="undefined" stroke-width="1" stroke-opacity="1" fill-opacity="1" visibility="visible" stroke-linecap="butt" stroke-linejoin="miter" stroke-miterlimit="4"></path><path transform="matrix(1 0 0 1 -13 0)" id="twojs-18" d="M 10 0 C 10 5.522847 5.522847 10 0 10 C -5.522848 10 -10 5.522847 -10 0 C -10.000001 -5.522848 -5.522848 -10 -0.000001 -10 C 5.522847 -10.000001 10 -5.522848 10 0 Z " fill="#fff" stroke="undefined" stroke-width="1" stroke-opacity="1" fill-opacity="1" visibility="visible" stroke-linecap="butt" stroke-linejoin="miter" stroke-miterlimit="4"></path></g>
</svg>