<svg xmlns="http://www.w3.org/2000/svg" width="48px" height="48px" viewBox="0 0 24 24" aria-labelledby="addIconTitle" >
<g  transform="matrix(1 0 0 1 592 76)" opacity="1" style="outline: 0px;"><path transform="matrix(1 0 0 1 -4.75 0)" d="M -57.4 -18.5 L 57.4 -18.5 L 57.4 18.5 L -57.4 18.5 Z " fill="#0052CC" stroke="#0052CC" stroke-width="8" stroke-opacity="1" fill-opacity="1" visibility="visible" stroke-linecap="butt" stroke-linejoin="round" stroke-miterlimit="4" id="two-6"></path><g id="two-14" transform="matrix(1 0 0 1 0 0)" opacity="0"><path transform="matrix(1 0 0 1 0 0)" d="M -72.15 -28.5 L 62.65 -28.5 L 62.65 28.5 L -72.15 28.5 Z " fill="rgba(0,0,0,0)" stroke="#505F79" stroke-width="1" stroke-opacity="1" fill-opacity="1" visibility="visible" stroke-linecap="butt" stroke-linejoin="miter" stroke-miterlimit="4" id="two-8"></path><g id="two-13" transform="matrix(1 0 0 1 0 0)" opacity="1"><path transform="matrix(1 0 0 1 -72.151 -28.5)" d="M 3 0 C 3 1.656 1.656 3 0 3 C -1.657 3 -3 1.656 -3 0 C -3.001 -1.657 -1.657 -3 -0.001 -3 C 1.656 -3.001 3 -1.657 3 0 Z " fill="#fff" stroke="#000" stroke-width="1" stroke-opacity="1" fill-opacity="1" visibility="visible" stroke-linecap="butt" stroke-linejoin="miter" stroke-miterlimit="4" id="two-9"></path><path transform="matrix(1 0 0 1 62.65 -28.5)" d="M 3 0 C 3 1.656 1.656 3 0 3 C -1.657 3 -3 1.656 -3 0 C -3.001 -1.657 -1.657 -3 -0.001 -3 C 1.656 -3.001 3 -1.657 3 0 Z " fill="#fff" stroke="#000" stroke-width="1" stroke-opacity="1" fill-opacity="1" visibility="visible" stroke-linecap="butt" stroke-linejoin="miter" stroke-miterlimit="4" id="two-10"></path><path transform="matrix(1 0 0 1 62.65 28.5)" d="M 3 0 C 3 1.656 1.656 3 0 3 C -1.657 3 -3 1.656 -3 0 C -3.001 -1.657 -1.657 -3 -0.001 -3 C 1.656 -3.001 3 -1.657 3 0 Z " fill="#fff" stroke="#000" stroke-width="1" stroke-opacity="1" fill-opacity="1" visibility="visible" stroke-linecap="butt" stroke-linejoin="miter" stroke-miterlimit="4" id="two-11"></path><path transform="matrix(1 0 0 1 -72.151 28.5)" d="M 3 0 C 3 1.656 1.656 3 0 3 C -1.657 3 -3 1.656 -3 0 C -3.001 -1.657 -1.657 -3 -0.001 -3 C 1.656 -3.001 3 -1.657 3 0 Z " fill="#fff" stroke="#000" stroke-width="1" stroke-opacity="1" fill-opacity="1" visibility="visible" stroke-linecap="butt" stroke-linejoin="miter" stroke-miterlimit="4" id="two-12"></path></g></g><g id="two-4" transform="matrix(1 0 0 1 0 0)" opacity="1"><g id="two-2" transform="matrix(1.2 0 0 1.2 -35.151 -1)" opacity="1"><path transform="matrix(1 0 0 1 -3 -1)" d="M -7 -7 L -7 -6.5 L -7 7 L 7 7 L 7 -7 L -7 -7 Z M -6 -6 L 6 -6 L 6 1.164 L 3.65 -1.78 L 1.078 1.181 L -2.004 -2.815 L -6 1.685 L -6 -6 Z M -2.061 -1.249 L 0.408 1.951 L 0.404 1.955 L 0.421 1.97 L 3.529 6 L -6 6 L -6 3.189 L -2.061 -1.249 Z M 3.617 -0.219 L 6 2.767 L 6 6 L 4.794 6 L 1.699 1.986 L 3.617 -0.219 Z " fill="#ffffff" stroke="undefined" stroke-width="1" stroke-opacity="1" fill-opacity="1" visibility="visible" stroke-linecap="butt" stroke-linejoin="miter" stroke-miterlimit="4" id="two-3"></path></g><text transform="matrix(1 0 0 1 -22.15 0)" font-family="sans-serif" font-size="18" line-height="17" text-anchor="start" dominant-baseline="middle" alignment-baseline="middle" font-style="normal" font-weight="400" text-decoration="none" fill="#fff" stroke="transparent" stroke-width="1" opacity="1" class="" visibility="visible" id="two-1">Button</text></g></g>
</svg>