<svg xmlns="http://www.w3.org/2000/svg" xmlns:xlink="http://www.w3.org/1999/xlink" version="1.1" width="30" height="30" viewBox="-30 -20 60 60">
  
<g id="two-13" transform="matrix(1 0 0 1 0 0)" opacity="1" class="dragger-picker" data-label="toggle_coord" style="outline: 0px;"><g id="two-20" transform="matrix(1 0 0 1 0 0)" opacity="0"><path transform="matrix(1 0 0 1 0 0)" d="M 0 0 Z " fill="rgba(0,0,0,0)" stroke="#505F79" stroke-width="1" stroke-opacity="1" fill-opacity="1" visibility="visible" stroke-linecap="butt" stroke-linejoin="miter" stroke-miterlimit="4" id="two-14"></path><g id="two-19" transform="matrix(1 0 0 1 0 0)" opacity="0"><path transform="matrix(1 0 0 1 0 0)" d="M 3 0 C 3 1.656854 1.656854 3 0 3 C -1.656855 3 -3 1.656854 -3 0 C -3.000001 -1.656855 -1.656855 -3 -0.000001 -3 C 1.656854 -3.000001 3 -1.656855 3 0 Z " fill="#fff" stroke="#000" stroke-width="1" stroke-opacity="1" fill-opacity="1" visibility="visible" stroke-linecap="butt" stroke-linejoin="miter" stroke-miterlimit="4" id="two-15"></path><path transform="matrix(1 0 0 1 0 0)" d="M 3 0 C 3 1.656854 1.656854 3 0 3 C -1.656855 3 -3 1.656854 -3 0 C -3.000001 -1.656855 -1.656855 -3 -0.000001 -3 C 1.656854 -3.000001 3 -1.656855 3 0 Z " fill="#fff" stroke="#000" stroke-width="1" stroke-opacity="1" fill-opacity="1" visibility="visible" stroke-linecap="butt" stroke-linejoin="miter" stroke-miterlimit="4" id="two-16"></path><path transform="matrix(1 0 0 1 0 0)" d="M 3 0 C 3 1.656854 1.656854 3 0 3 C -1.656855 3 -3 1.656854 -3 0 C -3.000001 -1.656855 -1.656855 -3 -0.000001 -3 C 1.656854 -3.000001 3 -1.656855 3 0 Z " fill="#fff" stroke="#000" stroke-width="1" stroke-opacity="1" fill-opacity="1" visibility="visible" stroke-linecap="butt" stroke-linejoin="miter" stroke-miterlimit="4" id="two-17"></path><path transform="matrix(1 0 0 1 0 0)" d="M 3 0 C 3 1.656854 1.656854 3 0 3 C -1.656855 3 -3 1.656854 -3 0 C -3.000001 -1.656855 -1.656855 -3 -0.000001 -3 C 1.656854 -3.000001 3 -1.656855 3 0 Z " fill="#fff" stroke="#000" stroke-width="1" stroke-opacity="1" fill-opacity="1" visibility="visible" stroke-linecap="butt" stroke-linejoin="miter" stroke-miterlimit="4" id="two-18"></path></g></g><g id="two-12" transform="matrix(1 0 0 1 0 0)" opacity="1"><path transform="matrix(1 0 0 1 0 0)" d="M -11.5 -15 C -11.5 -15 11.5 -15 11.5 -15 C 27.5 -15 27.5 1 27.5 1 C 27.5 1 27.5 -1 27.5 -1 C 27.5 15 11.5 15 11.5 15 C 11.5 15 -11.5 15 -11.5 15 C -27.5 15 -27.5 -1 -27.5 -1 C -27.5 -1 -27.5 1 -27.5 1 C -27.5 -15 -11.5 -15 -11.5 -15 C -11.5 -15 -11.5 -15 -11.5 -15 C -11.5 -15 -11.5 -15 -11.5 -15 Z " fill="#0052CC" stroke="undefined" stroke-width="1" stroke-opacity="1" fill-opacity="1" visibility="visible" stroke-linecap="butt" stroke-linejoin="miter" stroke-miterlimit="4" id="two-10"></path><path transform="matrix(1 0 0 1 13 0)" d="M 10 0 C 10 5.522847 5.522847 10 0 10 C -5.522848 10 -10 5.522847 -10 0 C -10.000001 -5.522848 -5.522848 -10 -0.000001 -10 C 5.522847 -10.000001 10 -5.522848 10 0 Z " fill="#fff" stroke="undefined" stroke-width="1" stroke-opacity="1" fill-opacity="1" visibility="visible" stroke-linecap="butt" stroke-linejoin="miter" stroke-miterlimit="4" id="two-11"></path></g></g>
</svg>